<svg width="40" height="40" viewBox="0 0 40 40" fill="none" xmlns="http://www.w3.org/2000/svg">
<path d="M20 40C31.0457 40 40 31.0457 40 20C40 8.9543 31.0457 0 20 0C8.9543 0 0 8.9543 0 20C0 31.0457 8.9543 40 20 40Z" fill="white"/>
<path d="M20 39.5C30.7696 39.5 39.5 30.7696 39.5 20C39.5 9.23045 30.7696 0.5 20 0.5C9.23045 0.5 0.5 9.23045 0.5 20C0.5 30.7696 9.23045 39.5 20 39.5Z" stroke="#EAECED" stroke-miterlimit="10"/>
<path d="M15.9432 26V24.2273L20.0852 20.392C20.4375 20.0511 20.733 19.7443 20.9716 19.4716C21.214 19.1989 21.3977 18.9318 21.5227 18.6705C21.6477 18.4053 21.7102 18.1193 21.7102 17.8125C21.7102 17.4716 21.6326 17.178 21.4773 16.9318C21.322 16.6818 21.1098 16.4905 20.8409 16.358C20.572 16.2216 20.267 16.1534 19.9261 16.1534C19.5701 16.1534 19.2595 16.2254 18.9943 16.3693C18.7292 16.5133 18.5246 16.7197 18.3807 16.9886C18.2367 17.2576 18.1648 17.5777 18.1648 17.9489H15.8295C15.8295 17.1875 16.0019 16.5265 16.3466 15.9659C16.6913 15.4053 17.1742 14.9716 17.7955 14.6648C18.4167 14.358 19.1326 14.2045 19.9432 14.2045C20.7765 14.2045 21.5019 14.3523 22.1193 14.6477C22.7405 14.9394 23.2235 15.3447 23.5682 15.8636C23.9129 16.3826 24.0852 16.9773 24.0852 17.6477C24.0852 18.0871 23.9981 18.5208 23.8239 18.9489C23.6534 19.3769 23.3485 19.8523 22.9091 20.375C22.4697 20.8939 21.8504 21.517 21.0511 22.2443L19.3523 23.9091V23.9886H24.2386V26H15.9432Z" fill="#667085"/>
</svg>
