<svg width="40" height="40" viewBox="0 0 40 40" fill="none" xmlns="http://www.w3.org/2000/svg">
<path d="M20 40C8.9543 40 0 31.0457 0 20C0 8.9543 8.9543 0 20 0C31.0457 0 40 8.9543 40 20C40 31.0457 31.0457 40 20 40Z" fill="white"/>
<path d="M20 39.5C9.23045 39.5 0.5 30.7696 0.5 20C0.5 9.23045 9.23045 0.5 20 0.5C30.7696 0.5 39.5 9.23045 39.5 20C39.5 30.7696 30.7696 39.5 20 39.5Z" stroke="#EAECED" stroke-miterlimit="10"/>
<path d="M12.5086 20.173L17.5086 15.486C17.5729 15.4271 17.6569 15.3945 17.7441 15.3945C17.8312 15.3945 17.9152 15.4271 17.9796 15.486C18.0102 15.5141 18.0346 15.5482 18.0513 15.5863C18.0681 15.6243 18.0767 15.6654 18.0767 15.707C18.0767 15.7485 18.0681 15.7896 18.0513 15.8277C18.0346 15.8657 18.0102 15.8999 17.9796 15.928L13.5486 20.082H28.0756C28.1181 20.0796 28.1607 20.0859 28.2007 20.1005C28.2407 20.1151 28.2773 20.1377 28.3082 20.167C28.3392 20.1962 28.3638 20.2315 28.3807 20.2706C28.3976 20.3097 28.4062 20.3519 28.4062 20.3945C28.4062 20.4371 28.3976 20.4792 28.3807 20.5183C28.3638 20.5574 28.3392 20.5927 28.3082 20.622C28.2773 20.6512 28.2407 20.6738 28.2007 20.6885C28.1607 20.7031 28.1181 20.7094 28.0756 20.707H13.5466L17.9776 24.861C18.0082 24.8891 18.0326 24.9232 18.0493 24.9613C18.0661 24.9993 18.0747 25.0404 18.0747 25.082C18.0747 25.1235 18.0661 25.1646 18.0493 25.2027C18.0326 25.2407 18.0082 25.2749 17.9776 25.303C17.9132 25.3618 17.8292 25.3944 17.7421 25.3944C17.6549 25.3944 17.5709 25.3618 17.5066 25.303L12.5066 20.615C12.4761 20.5867 12.4518 20.5525 12.4352 20.5143C12.4187 20.4762 12.4103 20.4351 12.4104 20.3935C12.4106 20.352 12.4194 20.3109 12.4363 20.2729C12.4532 20.235 12.4778 20.2009 12.5086 20.173V20.173Z" stroke="#FEB918" stroke-miterlimit="10"/>
</svg>
